<mxfile host="app.diagrams.net" agent="Mozilla/5.0 (Windows NT 10.0; Win64; x64) AppleWebKit/537.36 (KHTML, like Gecko) Chrome/132.0.0.0 Safari/537.36" version="26.0.10">
  <diagram name="Trang-1" id="QdVctuVh_ac5PN6VSOF_">
    <mxGraphModel dx="1687" dy="908" grid="1" gridSize="13" guides="1" tooltips="1" connect="1" arrows="1" fold="1" page="1" pageScale="1" pageWidth="1654" pageHeight="2336" math="0" shadow="0">
      <root>
        <mxCell id="0" />
        <mxCell id="1" parent="0" />
        <mxCell id="BH_a3vEXOQqy0Yr79a7O-3" value="AI-eng task chart" style="text;html=1;align=center;verticalAlign=middle;whiteSpace=wrap;rounded=0;fontStyle=0;fontSize=41;fontFamily=Helvetica;" vertex="1" parent="1">
          <mxGeometry x="26" y="52" width="351" height="65" as="geometry" />
        </mxCell>
        <mxCell id="BH_a3vEXOQqy0Yr79a7O-4" value="Design: @privmk-q1&lt;div&gt;method: Waterfall premium&amp;nbsp;&lt;/div&gt;" style="text;html=1;align=left;verticalAlign=middle;whiteSpace=wrap;rounded=0;" vertex="1" parent="1">
          <mxGeometry x="52" y="117" width="325" height="39" as="geometry" />
        </mxCell>
        <mxCell id="BH_a3vEXOQqy0Yr79a7O-6" value="REQUIREMENT ANALYST&lt;div&gt;( Phân tích yêu cầu )&lt;/div&gt;" style="rounded=0;whiteSpace=wrap;html=1;fontStyle=1;fontSize=17;fillColor=#f8cecc;strokeColor=#b85450;" vertex="1" parent="1">
          <mxGeometry x="156" y="260" width="326" height="156" as="geometry" />
        </mxCell>
        <mxCell id="BH_a3vEXOQqy0Yr79a7O-7" value="SYSTEM DESIGN&lt;div&gt;( Thiết kế hệ thống )&lt;/div&gt;" style="rounded=0;whiteSpace=wrap;html=1;fontStyle=1;fontSize=17;fillColor=#f8cecc;strokeColor=#b85450;" vertex="1" parent="1">
          <mxGeometry x="156" y="572" width="326" height="156" as="geometry" />
        </mxCell>
        <mxCell id="BH_a3vEXOQqy0Yr79a7O-8" value="DEVELOPMENT&lt;br&gt;&lt;div&gt;( Triển khai lập trình )&lt;/div&gt;" style="rounded=0;whiteSpace=wrap;html=1;fontStyle=1;fontSize=17;fillColor=#f8cecc;strokeColor=#b85450;" vertex="1" parent="1">
          <mxGeometry x="156" y="884" width="326" height="156" as="geometry" />
        </mxCell>
        <mxCell id="BH_a3vEXOQqy0Yr79a7O-9" value="TESTING &amp;amp; INTEGRATION&lt;div&gt;( Kiểm thử )&lt;/div&gt;" style="rounded=0;whiteSpace=wrap;html=1;fontStyle=1;fontSize=17;fillColor=#f8cecc;strokeColor=#b85450;" vertex="1" parent="1">
          <mxGeometry x="156" y="1196" width="326" height="156" as="geometry" />
        </mxCell>
        <mxCell id="BH_a3vEXOQqy0Yr79a7O-10" value="DEPLOYMENT &amp;amp; MAINTENANCE&lt;br&gt;&lt;div&gt;( Triển khai )&lt;/div&gt;" style="rounded=0;whiteSpace=wrap;html=1;fontStyle=1;fontSize=17;fillColor=#f8cecc;strokeColor=#b85450;" vertex="1" parent="1">
          <mxGeometry x="156" y="1508" width="326" height="156" as="geometry" />
        </mxCell>
        <mxCell id="BH_a3vEXOQqy0Yr79a7O-14" value="" style="html=1;shadow=0;dashed=0;align=center;verticalAlign=middle;shape=mxgraph.arrows2.arrow;dy=0.6;dx=40;direction=south;notch=0;fillColor=#f8cecc;strokeColor=#b85450;" vertex="1" parent="1">
          <mxGeometry x="273" y="442" width="70" height="100" as="geometry" />
        </mxCell>
        <mxCell id="BH_a3vEXOQqy0Yr79a7O-15" value="" style="html=1;shadow=0;dashed=0;align=center;verticalAlign=middle;shape=mxgraph.arrows2.arrow;dy=0.6;dx=40;direction=south;notch=0;fillColor=#f8cecc;strokeColor=#b85450;" vertex="1" parent="1">
          <mxGeometry x="273" y="754" width="70" height="100" as="geometry" />
        </mxCell>
        <mxCell id="BH_a3vEXOQqy0Yr79a7O-16" value="" style="html=1;shadow=0;dashed=0;align=center;verticalAlign=middle;shape=mxgraph.arrows2.arrow;dy=0.6;dx=40;direction=south;notch=0;fillColor=#f8cecc;strokeColor=#b85450;" vertex="1" parent="1">
          <mxGeometry x="273" y="1068" width="70" height="100" as="geometry" />
        </mxCell>
        <mxCell id="BH_a3vEXOQqy0Yr79a7O-17" value="" style="html=1;shadow=0;dashed=0;align=center;verticalAlign=middle;shape=mxgraph.arrows2.arrow;dy=0.6;dx=40;direction=south;notch=0;fillColor=#f8cecc;strokeColor=#b85450;" vertex="1" parent="1">
          <mxGeometry x="273" y="1380" width="70" height="100" as="geometry" />
        </mxCell>
        <mxCell id="BH_a3vEXOQqy0Yr79a7O-18" value="&lt;font style=&quot;color: rgb(255, 102, 102);&quot;&gt;Red &lt;/font&gt;: Not Allow&lt;div&gt;&lt;font style=&quot;color: rgb(0, 255, 0);&quot;&gt;Green&lt;/font&gt;: Allow&lt;/div&gt;" style="rounded=1;whiteSpace=wrap;html=1;absoluteArcSize=1;arcSize=14;strokeWidth=2;align=left;fillColor=#647687;strokeColor=#314354;fontColor=#ffffff;" vertex="1" parent="1">
          <mxGeometry x="156" y="442" width="100" height="52" as="geometry" />
        </mxCell>
        <mxCell id="BH_a3vEXOQqy0Yr79a7O-20" value="&lt;font style=&quot;color: rgb(255, 102, 102);&quot;&gt;Red &lt;/font&gt;: Not Allow&lt;div&gt;&lt;font style=&quot;color: rgb(0, 255, 0);&quot;&gt;Green&lt;/font&gt;: Allow&lt;/div&gt;" style="rounded=1;whiteSpace=wrap;html=1;absoluteArcSize=1;arcSize=14;strokeWidth=2;align=left;fillColor=#647687;strokeColor=#314354;fontColor=#ffffff;" vertex="1" parent="1">
          <mxGeometry x="151.5" y="754" width="100" height="52" as="geometry" />
        </mxCell>
        <mxCell id="BH_a3vEXOQqy0Yr79a7O-21" value="&lt;font style=&quot;color: rgb(255, 102, 102);&quot;&gt;Red &lt;/font&gt;: Not Allow&lt;div&gt;&lt;font style=&quot;color: rgb(0, 255, 0);&quot;&gt;Green&lt;/font&gt;: Allow&lt;/div&gt;" style="rounded=1;whiteSpace=wrap;html=1;absoluteArcSize=1;arcSize=14;strokeWidth=2;align=left;fillColor=#647687;strokeColor=#314354;fontColor=#ffffff;" vertex="1" parent="1">
          <mxGeometry x="158.25" y="1068" width="100" height="52" as="geometry" />
        </mxCell>
        <mxCell id="BH_a3vEXOQqy0Yr79a7O-22" value="&lt;font style=&quot;color: rgb(255, 102, 102);&quot;&gt;Red &lt;/font&gt;: Not Allow&lt;div&gt;&lt;font style=&quot;color: rgb(0, 255, 0);&quot;&gt;Green&lt;/font&gt;: Allow&lt;/div&gt;" style="rounded=1;whiteSpace=wrap;html=1;absoluteArcSize=1;arcSize=14;strokeWidth=2;align=left;fillColor=#647687;strokeColor=#314354;fontColor=#ffffff;" vertex="1" parent="1">
          <mxGeometry x="153.75" y="1380" width="100" height="52" as="geometry" />
        </mxCell>
        <mxCell id="BH_a3vEXOQqy0Yr79a7O-24" value="" style="rounded=1;whiteSpace=wrap;html=1;absoluteArcSize=1;arcSize=14;strokeWidth=2;" vertex="1" parent="1">
          <mxGeometry x="689" y="156" width="2457" height="897" as="geometry" />
        </mxCell>
        <mxCell id="BH_a3vEXOQqy0Yr79a7O-27" value="" style="html=1;shadow=0;dashed=0;align=center;verticalAlign=middle;shape=mxgraph.arrows2.arrow;dy=0.6;dx=40;notch=0;fillColor=#ffe6cc;strokeColor=#d79b00;" vertex="1" parent="1">
          <mxGeometry x="482" y="303" width="207" height="70" as="geometry" />
        </mxCell>
        <mxCell id="BH_a3vEXOQqy0Yr79a7O-28" value="&lt;h1 style=&quot;margin-top: 0px;&quot;&gt;Main&lt;/h1&gt;&lt;p&gt;&lt;span style=&quot;background-color: transparent; color: light-dark(rgb(0, 0, 0), rgb(255, 255, 255));&quot;&gt;Giai đoạn này tập trung vào việc xác định rõ ràng các yêu cầu của ứng dụng sổ tay từ vựng tiếng Anh, bao gồm thu thập yêu cầu, phân tích và lập tài liệu đặc tả yêu cầu phần mềm (SRS - Software Requirement Specification).&lt;/span&gt;.&lt;/p&gt;" style="text;html=1;whiteSpace=wrap;overflow=hidden;rounded=0;" vertex="1" parent="1">
          <mxGeometry x="741" y="183" width="390" height="120" as="geometry" />
        </mxCell>
        <mxCell id="BH_a3vEXOQqy0Yr79a7O-34" value="" style="rounded=0;whiteSpace=wrap;html=1;" vertex="1" parent="1">
          <mxGeometry x="741" y="325" width="364" height="507" as="geometry" />
        </mxCell>
        <mxCell id="BH_a3vEXOQqy0Yr79a7O-35" value="&lt;span style=&quot;font-size: 24px;&quot;&gt;&lt;b&gt;Target user&lt;/b&gt;&lt;/span&gt;" style="text;html=1;align=center;verticalAlign=middle;whiteSpace=wrap;rounded=0;" vertex="1" parent="1">
          <mxGeometry x="754" y="338" width="143" height="30" as="geometry" />
        </mxCell>
        <mxCell id="BH_a3vEXOQqy0Yr79a7O-36" value="Student" style="rounded=1;whiteSpace=wrap;html=1;" vertex="1" parent="1">
          <mxGeometry x="754" y="382" width="91" height="60" as="geometry" />
        </mxCell>
        <mxCell id="BH_a3vEXOQqy0Yr79a7O-37" value="Teacher" style="rounded=1;whiteSpace=wrap;html=1;" vertex="1" parent="1">
          <mxGeometry x="871" y="382" width="91" height="60" as="geometry" />
        </mxCell>
        <mxCell id="BH_a3vEXOQqy0Yr79a7O-38" value="foreign language learners" style="rounded=1;whiteSpace=wrap;html=1;" vertex="1" parent="1">
          <mxGeometry x="988" y="382" width="91" height="60" as="geometry" />
        </mxCell>
        <mxCell id="BH_a3vEXOQqy0Yr79a7O-39" value="&lt;span style=&quot;font-size: 24px;&quot;&gt;&lt;b&gt;Demand&lt;/b&gt;&lt;/span&gt;" style="text;html=1;align=center;verticalAlign=middle;whiteSpace=wrap;rounded=0;" vertex="1" parent="1">
          <mxGeometry x="754" y="464" width="117" height="30" as="geometry" />
        </mxCell>
        <mxCell id="BH_a3vEXOQqy0Yr79a7O-40" value="&lt;span style=&quot;background-color: transparent; color: light-dark(rgb(0, 0, 0), rgb(255, 255, 255));&quot;&gt;Công cụ ghi nhớ từ vựng mới.&lt;/span&gt;&lt;br&gt;&lt;span style=&quot;background-color: transparent; color: light-dark(rgb(0, 0, 0), rgb(255, 255, 255));&quot;&gt;Ôn lại từ vựng đã học.&lt;/span&gt;&lt;div&gt;Củng cố kiến thức ngôn ngữ.&lt;br&gt;&lt;div style=&quot;&quot;&gt;&lt;br&gt;&lt;/div&gt;&lt;/div&gt;" style="rounded=1;whiteSpace=wrap;html=1;align=left;" vertex="1" parent="1">
          <mxGeometry x="754" y="512" width="91" height="177" as="geometry" />
        </mxCell>
        <mxCell id="BH_a3vEXOQqy0Yr79a7O-41" value="Tạo danh sách từ vựng.&lt;div&gt;Phục vụ dạy học.&lt;/div&gt;&lt;div&gt;Tạo các bài test thuận tiện.&lt;/div&gt;&lt;div&gt;Phục vụ nhu cầu dạy học.&lt;/div&gt;" style="rounded=1;whiteSpace=wrap;html=1;align=left;" vertex="1" parent="1">
          <mxGeometry x="871" y="512" width="91" height="177" as="geometry" />
        </mxCell>
        <mxCell id="BH_a3vEXOQqy0Yr79a7O-42" value="Phục vụ cho việc học và ghi nhớ từ vựng." style="rounded=1;whiteSpace=wrap;html=1;" vertex="1" parent="1">
          <mxGeometry x="988" y="512" width="91" height="177" as="geometry" />
        </mxCell>
        <mxCell id="BH_a3vEXOQqy0Yr79a7O-43" value="&lt;blockquote style=&quot;margin: 0 0 0 40px; border: none; padding: 0px;&quot;&gt;&lt;span style=&quot;background-color: transparent; color: light-dark(rgb(0, 0, 0), rgb(255, 255, 255));&quot;&gt;Chi phí phù hợp cho từng đối tượng người dùng.&lt;br&gt;&lt;/span&gt;&lt;span style=&quot;background-color: transparent; color: light-dark(rgb(0, 0, 0), rgb(255, 255, 255));&quot;&gt;Tính ổn định.&lt;br&gt;&lt;/span&gt;&lt;span style=&quot;background-color: transparent; color: light-dark(rgb(0, 0, 0), rgb(255, 255, 255));&quot;&gt;Sự chính xác trong dịch thuật.&lt;br&gt;&lt;/span&gt;&lt;span style=&quot;background-color: transparent; color: light-dark(rgb(0, 0, 0), rgb(255, 255, 255));&quot;&gt;Các tính năng mang lại hiệu quả tốt.&lt;br&gt;&lt;/span&gt;&lt;span style=&quot;background-color: transparent; color: light-dark(rgb(0, 0, 0), rgb(255, 255, 255));&quot;&gt;Thuận tiện khi sử dụng.&lt;br&gt;&lt;/span&gt;&lt;span style=&quot;background-color: transparent; color: light-dark(rgb(0, 0, 0), rgb(255, 255, 255));&quot;&gt;Phù hợp cho mọi thiết bị và cấu hình phần cứng.&lt;/span&gt;&lt;/blockquote&gt;" style="rounded=1;whiteSpace=wrap;html=1;align=left;" vertex="1" parent="1">
          <mxGeometry x="754" y="715" width="325" height="91" as="geometry" />
        </mxCell>
        <mxCell id="BH_a3vEXOQqy0Yr79a7O-48" value="" style="rounded=0;whiteSpace=wrap;html=1;" vertex="1" parent="1">
          <mxGeometry x="1300" y="183" width="416" height="272" as="geometry" />
        </mxCell>
        <mxCell id="BH_a3vEXOQqy0Yr79a7O-49" value="&lt;span style=&quot;font-size: 24px;&quot;&gt;&lt;b&gt;Task #1a: Khảo sát&lt;/b&gt;&lt;/span&gt;" style="text;html=1;align=center;verticalAlign=middle;whiteSpace=wrap;rounded=0;" vertex="1" parent="1">
          <mxGeometry x="1313" y="195" width="221" height="30" as="geometry" />
        </mxCell>
        <mxCell id="BH_a3vEXOQqy0Yr79a7O-51" value="&lt;font size=&quot;1&quot;&gt;Khảo sát người dùng sử dụng Google Form, thiết kế form khảo sát sao cho khi kết xuất ra file dữ liệu có thể mang đi phân tích được thuận tiện (có thể sử dụng python hoặc R cho việc phân tích dữ liệu sau đó kết xuất biểu đồ và đưa ra các kết luận ).&lt;/font&gt;&lt;div&gt;&lt;font size=&quot;1&quot;&gt;&lt;span style=&quot;white-space: pre;&quot;&gt;&#x9;&lt;/span&gt;Các mục gợi ý trong bài khảo sát:&lt;/font&gt;&lt;/div&gt;&lt;div&gt;&lt;font size=&quot;1&quot;&gt;&lt;span style=&quot;white-space: pre;&quot;&gt;&#x9;&lt;/span&gt;- Đối tượng người dùng: học sinh, giảng viên hay người đi làm,...&lt;br&gt;&lt;/font&gt;&lt;/div&gt;&lt;div&gt;&lt;font size=&quot;1&quot;&gt;&lt;span style=&quot;white-space: pre;&quot;&gt;&#x9;&lt;/span&gt;- Người dùng mong muốn thêm từ vựng theo cách nào (nhập từ/đoạn hay app tự động thu thập trong quá trình sử dụng thiết bị)&lt;/font&gt;&lt;/div&gt;&lt;div&gt;&lt;font size=&quot;1&quot;&gt;&lt;span style=&quot;white-space: pre;&quot;&gt;&#x9;&lt;/span&gt;- Người dùng mong muốn học từ vựng theo cách nào: nhắc nhở ôn tập hay tìm cách ứng dụng từ đã học trong thực tế.&lt;/font&gt;&lt;/div&gt;&lt;div&gt;&lt;font size=&quot;1&quot;&gt;&lt;span style=&quot;white-space: pre;&quot;&gt;&#x9;&lt;/span&gt;- Có nhu cầu đồng bộ giữa nhiều thiết bị và giữa nhiều người với nhau không&amp;nbsp;&lt;/font&gt;&lt;/div&gt;&lt;div&gt;&lt;font size=&quot;1&quot;&gt;&lt;span style=&quot;white-space: pre;&quot;&gt;&#x9;&lt;/span&gt;- Có nhu cầu hỗ trợ chi tiết vè phát âm hoặc mô tả không&lt;/font&gt;&lt;/div&gt;&lt;div&gt;&lt;font size=&quot;1&quot;&gt;&lt;span style=&quot;white-space: pre;&quot;&gt;&#x9;&lt;/span&gt;- Khảo sát khả năng chi trả cho phần mềm nếu có gói trả phí (hãy đề ra các mức giá cụ thể)&lt;/font&gt;&lt;/div&gt;&lt;div&gt;&lt;font size=&quot;1&quot;&gt;&lt;span style=&quot;white-space: pre;&quot;&gt;&#x9;&lt;/span&gt;&lt;/font&gt;&lt;/div&gt;" style="text;html=1;align=left;verticalAlign=top;whiteSpace=wrap;rounded=0;" vertex="1" parent="1">
          <mxGeometry x="1313" y="247" width="377" height="208" as="geometry" />
        </mxCell>
        <mxCell id="BH_a3vEXOQqy0Yr79a7O-52" value="" style="rounded=0;whiteSpace=wrap;html=1;" vertex="1" parent="1">
          <mxGeometry x="1300" y="514" width="416" height="110" as="geometry" />
        </mxCell>
        <mxCell id="BH_a3vEXOQqy0Yr79a7O-53" value="&lt;span style=&quot;font-size: 24px;&quot;&gt;&lt;b&gt;Task #1b: Khảo sát&lt;/b&gt;&lt;/span&gt;" style="text;html=1;align=center;verticalAlign=middle;whiteSpace=wrap;rounded=0;" vertex="1" parent="1">
          <mxGeometry x="1313" y="533" width="221" height="30" as="geometry" />
        </mxCell>
        <mxCell id="BH_a3vEXOQqy0Yr79a7O-54" value="&lt;font size=&quot;1&quot;&gt;Khảo sát tính năng của các ứng dụng tương tự.&lt;/font&gt;" style="text;html=1;align=left;verticalAlign=top;whiteSpace=wrap;rounded=0;" vertex="1" parent="1">
          <mxGeometry x="1313" y="578" width="377" height="33" as="geometry" />
        </mxCell>
        <mxCell id="BH_a3vEXOQqy0Yr79a7O-57" style="edgeStyle=orthogonalEdgeStyle;rounded=0;orthogonalLoop=1;jettySize=auto;html=1;entryX=0.484;entryY=0.055;entryDx=0;entryDy=0;entryPerimeter=0;" edge="1" parent="1" source="BH_a3vEXOQqy0Yr79a7O-51" target="BH_a3vEXOQqy0Yr79a7O-52">
          <mxGeometry relative="1" as="geometry" />
        </mxCell>
      </root>
    </mxGraphModel>
  </diagram>
</mxfile>
